<?xml version="1.0" encoding="utf-8"?>
<!-- Generator: Adobe Illustrator 24.2.0, SVG Export Plug-In . SVG Version: 6.00 Build 0)  -->
<svg version="1.1" id="Livello_1" xmlns="http://www.w3.org/2000/svg" xmlns:xlink="http://www.w3.org/1999/xlink" x="0px" y="0px"
	 viewBox="0 0 300 80" style="enable-background:new 0 0 300 80;" xml:space="preserve">
<style type="text/css">
	.st0{fill-rule:evenodd;clip-rule:evenodd;fill:#FFFFFF;}
</style>
<path class="st0" d="M97.5,59.7h6.8l-1.1-5.3V23.1h-6.5v14.3c-2-2.3-4.7-3.6-7.9-3.6c-6.5,0-11.6,5.4-11.6,13.2s5.1,13.2,11.6,13.2
	c3.2,0,6.1-1.4,8-3.7L97.5,59.7L97.5,59.7z M258,53.4c-3.8,0-6.6-2.5-6.6-6.4c0-3.9,2.8-6.4,6.6-6.4c3.8,0,6.6,2.5,6.6,6.4
	C264.6,50.9,261.9,53.4,258,53.4L258,53.4L258,53.4z M83.6,47c0-3.9,2.8-6.4,6.6-6.4c3.8,0,6.6,2.5,6.6,6.4c0,3.9-2.8,6.4-6.6,6.4
	C86.4,53.4,83.6,50.9,83.6,47L83.6,47z M221.3,59.7l0.7-3.2c2,2.4,4.8,3.7,8,3.7c6.5,0,11.6-5.4,11.6-13.2s-5.1-13.2-11.6-13.2
	c-3.2,0-5.9,1.3-7.9,3.6V23.1h-6.5v31.4l-1.1,5.3L221.3,59.7L221.3,59.7z M235.3,47c0,3.9-2.8,6.4-6.6,6.4c-3.8,0-6.6-2.5-6.6-6.4
	c0-3.9,2.8-6.4,6.6-6.4C232.5,40.6,235.3,43.1,235.3,47L235.3,47z M287,53.4c-3.8,0-6.6-2.5-6.6-6.4c0-3.9,2.8-6.4,6.6-6.4
	c3.8,0,6.6,2.5,6.6,6.4C293.6,50.9,290.8,53.4,287,53.4L287,53.4z M120.3,40.2c3.4,0,5.6,1.6,6.3,4.5H114
	C114.7,41.8,116.9,40.2,120.3,40.2L120.3,40.2z M198.5,40.2c3.4,0,5.6,1.6,6.3,4.5h-12.6C193,41.8,195.2,40.2,198.5,40.2L198.5,40.2
	z M166.6,59.7h10.5l6.8-25.4h-7.1l-5,20.5l-5-20.5h-7L166.6,59.7L166.6,59.7L166.6,59.7z M149.7,59.7h6.5V34.3h-6.5V59.7z
	 M121.3,60.2c3.6,0,7.2-1,10.2-2.9l-2.5-5.6c-2.4,1.2-5,2-7.6,2c-3.4,0-5.8-1.3-6.9-3.8h18.4c0.2-0.9,0.3-1.9,0.3-3
	c0-7.9-5.5-13.1-12.8-13.1c-7.4,0-12.8,5.3-12.8,13.2C107.6,55,113,60.2,121.3,60.2L121.3,60.2L121.3,60.2z M299.9,47
	c0-7.9-5.5-13.2-12.9-13.2c-7.4,0-12.9,5.4-12.9,13.2s5.5,13.2,12.9,13.2S299.9,54.9,299.9,47L299.9,47z M199.4,60.2
	c3.6,0,7.2-1,10.2-2.9l-2.5-5.6c-2.4,1.2-5,2-7.6,2c-3.4,0-5.9-1.3-6.9-3.8H211c0.2-0.9,0.3-1.9,0.3-3c0-7.9-5.5-13.1-12.8-13.1
	c-7.4,0-12.8,5.3-12.8,13.2C185.7,55.1,191.1,60.2,199.4,60.2L199.4,60.2L199.4,60.2z M258,60.2c7.4,0,12.9-5.4,12.9-13.2
	s-5.5-13.2-12.9-13.2c-7.4,0-12.9,5.4-12.9,13.2S250.6,60.2,258,60.2L258,60.2L258,60.2z M137.3,59.7h6.5V23.1h-6.5V59.7L137.3,59.7
	z M153,30.8c2.3,0,4.1-1.8,4.1-4.1c0-2.4-1.8-4.1-4.1-4.1c-2.4,0-4.1,1.8-4.1,4.1C148.9,29.1,150.7,30.8,153,30.8L153,30.8L153,30.8
	z M52.7,0l-3.7,35.1L42.5,5.5l-20,4.2l6.4,29.6L0,45.4l5.1,23.7l50.8,10.6L67.5,54L73,2.1L52.7,0z M36.6,51c-1,0.9-2.4,0.9-3.9,0.4
	c-1.5-0.5-2.1-2.2-1.6-4.3c0.4-1.6,2.4-1.8,3.3-1.8c0.4,0,0.7,0.1,1.1,0.2c0.7,0.3,1.9,1,2.1,2C38,48.8,37.7,50,36.6,51L36.6,51
	L36.6,51L36.6,51z M51.3,52.6c-0.8,1.3-2.8,1.5-4.7,0.5c-1.3-0.6-1.3-2.3-1.2-3.3c0.1-0.5,0.3-1.1,0.6-1.5c0.5-0.6,1.3-1.4,2.2-1.4
	c1.5,0,2.8,0.6,3.5,1.8C52.4,50,52.1,51.3,51.3,52.6L51.3,52.6L51.3,52.6z"/>
</svg>
