<?xml version="1.0" encoding="utf-8"?>
<!-- Generator: Adobe Illustrator 24.2.0, SVG Export Plug-In . SVG Version: 6.00 Build 0)  -->
<svg version="1.1" id="Livello_1" xmlns="http://www.w3.org/2000/svg" xmlns:xlink="http://www.w3.org/1999/xlink" x="0px" y="0px"
	 viewBox="0 0 300 80" style="enable-background:new 0 0 300 80;" xml:space="preserve">
<style type="text/css">
	.st0{fill-rule:evenodd;clip-rule:evenodd;fill:#00CCBC;}
</style>
<path class="st0" d="M104.4,59.9l-1.1-5.3V23.2h-6.5v14.4c-2-2.3-4.7-3.6-7.9-3.6c-6.5,0-11.6,5.4-11.6,13.3
	c0,7.9,5.1,13.3,11.6,13.3c3.2,0,6.1-1.4,8-3.8l0.7,3.2L104.4,59.9L104.4,59.9z M251.5,47.2c0-3.9,2.8-6.4,6.6-6.4
	c3.8,0,6.6,2.5,6.6,6.4c0,3.9-2.8,6.4-6.6,6.4C254.3,53.6,251.5,51.1,251.5,47.2L251.5,47.2z M83.6,47.2c0-3.9,2.8-6.4,6.6-6.4
	c3.8,0,6.6,2.5,6.6,6.4c0,3.9-2.8,6.4-6.6,6.4C86.4,53.6,83.6,51.1,83.6,47.2L83.6,47.2z M214.6,59.9h6.8l0.7-3.2
	c2,2.4,4.8,3.8,8,3.8c6.5,0,11.6-5.4,11.6-13.3c0-7.9-5.1-13.3-11.6-13.3c-3.2,0-5.9,1.3-7.9,3.6V23.2h-6.5v31.5L214.6,59.9
	L214.6,59.9z M235.4,47.2c0,3.9-2.8,6.4-6.6,6.4c-3.8,0-6.6-2.5-6.6-6.4c0-3.9,2.8-6.4,6.6-6.4C232.6,40.8,235.4,43.2,235.4,47.2
	L235.4,47.2z M287.1,53.6c-3.8,0-6.6-2.5-6.6-6.4c0-3.9,2.8-6.4,6.6-6.4c3.8,0,6.6,2.5,6.6,6.4C293.7,51.1,290.9,53.6,287.1,53.6
	L287.1,53.6z M126.6,44.9H114c0.7-2.9,3-4.5,6.3-4.5C123.7,40.4,125.9,42,126.6,44.9z M204.9,44.9h-12.6c0.7-2.9,2.9-4.5,6.3-4.5
	C202,40.4,204.2,42,204.9,44.9z M177.2,59.9l6.8-25.5h-7.1l-5,20.6l-5-20.6h-7l6.8,25.5L177.2,59.9L177.2,59.9z M149.8,59.9h6.5
	V34.5h-6.5L149.8,59.9L149.8,59.9z M131.5,57.5l-2.5-5.6c-2.4,1.2-5,2-7.6,2c-3.4,0-5.9-1.3-6.9-3.8h18.4c0.2-0.9,0.3-1.9,0.3-3
	c0-7.9-5.5-13.2-12.8-13.2c-7.4,0-12.8,5.3-12.8,13.3c0,8.1,5.4,13.3,13.7,13.3C124.9,60.4,128.5,59.4,131.5,57.5L131.5,57.5z
	 M287.1,33.9c-7.4,0-12.9,5.4-12.9,13.3c0,7.9,5.5,13.3,12.9,13.3c7.4,0,12.9-5.4,12.9-13.3C300,39.3,294.5,33.9,287.1,33.9
	L287.1,33.9z M209.7,57.6l-2.5-5.6c-2.4,1.2-5,2-7.6,2c-3.4,0-5.9-1.3-6.9-3.8h18.4c0.2-0.9,0.3-1.9,0.3-3c0-7.9-5.5-13.2-12.8-13.2
	c-7.4,0-12.8,5.3-12.8,13.3c0,8.1,5.4,13.3,13.7,13.3C203.1,60.5,206.7,59.5,209.7,57.6L209.7,57.6z M271,47.2
	c0-7.9-5.5-13.3-12.9-13.3c-7.4,0-12.9,5.4-12.9,13.3c0,7.9,5.5,13.3,12.9,13.3C265.5,60.5,271,55.1,271,47.2L271,47.2z M143.9,59.9
	V23.2h-6.5v36.8L143.9,59.9L143.9,59.9z M157.1,26.8c0-2.4-1.8-4.1-4.1-4.1c-2.4,0-4.1,1.8-4.1,4.1s1.8,4.1,4.1,4.1
	C155.4,31,157.1,29.2,157.1,26.8z M48.9,35.3L42.5,5.5l-20,4.2l6.4,29.7L0,45.6l5.1,23.8L55.9,80l11.6-25.8L73,2.1L52.7,0L48.9,35.3
	z M32.7,51.6c-1.5-0.5-2.1-2.2-1.6-4.4c0.4-1.6,2.4-1.8,3.3-1.8c0.4,0,0.7,0.1,1.1,0.2c0.7,0.3,1.9,1,2.1,2c0.3,1.5,0,2.7-1,3.6
	C35.6,52.1,34.2,52,32.7,51.6L32.7,51.6z M46.6,53.3c-1.3-0.6-1.3-2.3-1.2-3.3c0.1-0.5,0.3-1.1,0.6-1.5c0.5-0.6,1.3-1.4,2.2-1.4
	c1.5,0,2.8,0.6,3.5,1.8c0.7,1.2,0.4,2.5-0.4,3.8C50.6,54.1,48.6,54.3,46.6,53.3L46.6,53.3z"/>
</svg>
